<svg width="15" height="13" viewBox="0 0 15 13" fill="none" xmlns="http://www.w3.org/2000/svg">
    <path d="M7.431 8.491c.511 0 1.001-.199 1.363-.553a1.87 1.87 0 0 0 .556-1.5L7.264 8.484c.055.005.11.007.167.007zM13.81.76l-.735-.72a.139.139 0 0 0-.195 0L11 1.884c-1.038-.52-2.204-.78-3.499-.78-3.306 0-5.773 1.688-7.4 5.065a1 1 0 0 0 0 .868c.65 1.343 1.433 2.42 2.348 3.23L.628 12.05a.134.134 0 0 0 0 .19l.735.72a.139.139 0 0 0 .194 0L13.81.95a.134.134 0 0 0 .03-.147.134.134 0 0 0-.03-.044zM4.403 6.602c0-.513.136-1.016.394-1.463.257-.446.628-.819 1.077-1.083a3.073 3.073 0 0 1 2.983-.073l-.836.82a1.965 1.965 0 0 0-1.043-.037 1.938 1.938 0 0 0-.909.5 1.88 1.88 0 0 0-.51.892c-.084.338-.07.691.037 1.022L4.76 8a2.907 2.907 0 0 1-.357-1.398z" fill="#5E81B6"/>
    <path d="M14.9 6.167c-.605-1.25-1.326-2.27-2.162-3.059l-2.48 2.432c.21.535.256 1.119.134 1.68a2.953 2.953 0 0 1-.82 1.48 3.047 3.047 0 0 1-1.51.805 3.086 3.086 0 0 1-1.715-.13l-2.103 2.061c.976.443 2.061.664 3.256.664 3.306 0 5.773-1.688 7.4-5.064a1 1 0 0 0 0-.869z" fill="#5E81B6"/>
</svg>
