<svg width="15" height="11" viewBox="0 0 15 11" fill="none" xmlns="http://www.w3.org/2000/svg">
    <path d="M5.461 5.5c0 .501.202.982.56 1.336a1.923 1.923 0 0 0 2.703 0c.36-.354.56-.835.56-1.336 0-.501-.2-.982-.56-1.336a1.923 1.923 0 0 0-1.351-.554c-.507 0-.993.2-1.352.554-.358.354-.56.835-.56 1.336zm9.323-.435C13.166 1.695 10.72 0 7.44 0 4.161 0 1.717 1.696.1 5.066a1.008 1.008 0 0 0 0 .87C1.717 9.303 4.162 11 7.44 11c3.28 0 5.725-1.696 7.343-5.066.131-.274.131-.59 0-.87zM7.373 8.469c-1.66 0-3.004-1.33-3.004-2.969 0-1.64 1.345-2.97 3.004-2.97s3.004 1.33 3.004 2.97c0 1.64-1.345 2.97-3.004 2.97z" fill="#5E81B6"/>
</svg>
